<svg width="16" height="16" viewBox="0 0 16 16" fill="none" xmlns="http://www.w3.org/2000/svg">
    <rect x="0.5" y="0.5" width="15" height="15" rx="7.5" stroke="#CE4B67" />
    <path
        d="M9.20005 11.294C9.20005 11.614 9.08405 11.886 8.85205 12.11C8.62005 12.334 8.33605 12.446 8.00005 12.446C7.66405 12.446 7.38005 12.334 7.14805 12.11C6.91605 11.886 6.80005 11.614 6.80005 11.294C6.80005 10.966 6.91605 10.69 7.14805 10.466C7.38005 10.242 7.66405 10.13 8.00005 10.13C8.33605 10.13 8.62005 10.242 8.85205 10.466C9.08405 10.69 9.20005 10.966 9.20005 11.294ZM8.45605 9.49396H7.54405C7.52805 9.38196 7.49605 9.19396 7.44805 8.92996C7.40805 8.66596 7.36405 8.36195 7.31605 8.01795C7.26805 7.67395 7.21605 7.31795 7.16005 6.94995C7.11205 6.58195 7.06405 6.23396 7.01605 5.90596C6.97605 5.56996 6.94005 5.28595 6.90805 5.05395C6.88405 4.82195 6.87205 4.67395 6.87205 4.60996C6.87205 4.30595 6.98005 4.05395 7.19605 3.85395C7.42005 3.65395 7.68805 3.55396 8.00005 3.55396C8.31205 3.55396 8.57605 3.65395 8.79205 3.85395C9.01605 4.05395 9.12805 4.30595 9.12805 4.60996C9.12805 4.67395 9.11205 4.82195 9.08005 5.05395C9.05605 5.28595 9.02005 5.56996 8.97205 5.90596C8.93205 6.23396 8.88405 6.58195 8.82805 6.94995C8.78005 7.31795 8.73205 7.67395 8.68405 8.01795C8.63605 8.36195 8.59205 8.66596 8.55205 8.92996C8.51205 9.19396 8.48005 9.38196 8.45605 9.49396Z"
        fill="#CE4B67" />
</svg>