<svg width="10" height="10" viewBox="0 0 10 10" fill="none" xmlns="http://www.w3.org/2000/svg">
    <path
        d="M2.1875 10C1.87813 10 1.61338 9.8913 1.39325 9.67389C1.17313 9.45648 1.06288 9.19481 1.0625 8.88889V1.66667C0.903127 1.66667 0.769627 1.61333 0.662002 1.50667C0.554377 1.4 0.500377 1.26815 0.500002 1.11111C0.499627 0.954074 0.553627 0.822222 0.662002 0.715556C0.770377 0.608889 0.903877 0.555556 1.0625 0.555556H3.3125C3.3125 0.398148 3.3665 0.266296 3.4745 0.16C3.5825 0.0537038 3.716 0.00037037 3.875 0H6.125C6.28437 0 6.41806 0.0533334 6.52606 0.16C6.63406 0.266667 6.68787 0.398519 6.6875 0.555556H8.9375C9.09687 0.555556 9.23056 0.608889 9.33856 0.715556C9.44656 0.822222 9.50037 0.954074 9.5 1.11111C9.49962 1.26815 9.44562 1.40018 9.338 1.50722C9.23037 1.61426 9.09687 1.66741 8.9375 1.66667V8.88889C8.9375 9.19444 8.82744 9.45611 8.60731 9.67389C8.38719 9.89167 8.12225 10.0004 7.8125 10H2.1875ZM7.8125 1.66667H2.1875V8.88889H7.8125V1.66667ZM3.875 7.77778C4.03438 7.77778 4.16806 7.72444 4.27606 7.61778C4.38406 7.51111 4.43788 7.37926 4.4375 7.22222V3.33333C4.4375 3.17593 4.3835 3.04407 4.2755 2.93778C4.1675 2.83148 4.034 2.77815 3.875 2.77778C3.716 2.77741 3.5825 2.83074 3.4745 2.93778C3.3665 3.04481 3.3125 3.17667 3.3125 3.33333V7.22222C3.3125 7.37963 3.3665 7.51167 3.4745 7.61833C3.5825 7.725 3.716 7.77815 3.875 7.77778ZM6.125 7.77778C6.28437 7.77778 6.41806 7.72444 6.52606 7.61778C6.63406 7.51111 6.68787 7.37926 6.6875 7.22222V3.33333C6.6875 3.17593 6.6335 3.04407 6.5255 2.93778C6.4175 2.83148 6.284 2.77815 6.125 2.77778C5.966 2.77741 5.8325 2.83074 5.7245 2.93778C5.6165 3.04481 5.5625 3.17667 5.5625 3.33333V7.22222C5.5625 7.37963 5.6165 7.51167 5.7245 7.61833C5.8325 7.725 5.966 7.77815 6.125 7.77778Z"
        fill="white" />
</svg>
