<svg width="12" height="8" viewBox="0 0 12 8" fill="none" xmlns="http://www.w3.org/2000/svg">
    <path
        d="M0.250593 3.00481C0.411096 2.85766 0.628756 2.775 0.855707 2.775C1.08266 2.775 1.30032 2.85766 1.46082 3.00481L4.48725 5.78026L10.5384 0.230139C10.6179 0.157212 10.7122 0.0993537 10.8161 0.0598664C10.9199 0.0203792 11.0312 3.64936e-05 11.1436 4.90556e-08C11.2561 -3.63955e-05 11.3674 0.0202341 11.4713 0.059654C11.5751 0.099074 11.6695 0.156871 11.7491 0.229746C11.8286 0.302621 11.8917 0.389147 11.9347 0.484382C11.9778 0.579618 12 0.681698 12 0.784795C12 0.887893 11.9779 0.989988 11.935 1.08525C11.892 1.18051 11.8289 1.26708 11.7495 1.34001L4.48725 8L0.250593 4.11468C0.0901384 3.96748 0 3.76787 0 3.55974C0 3.35161 0.0901384 3.152 0.250593 3.00481Z"
        fill="white" />
</svg>