<svg width="24" height="22" viewBox="0 0 24 22" fill="none" xmlns="http://www.w3.org/2000/svg">
    <g clip-path="url(#clip0_218_4933)">
        <path
            d="M15.0699 10.45L5.58154 8.80005V20.9919C5.58154 21.5487 6.03958 22 6.60461 22H22.9771C23.5421 22 24.0001 21.5487 24.0001 20.9919V16.5L15.0699 10.45Z"
            fill="#185C37" />
        <path
            d="M15.0699 0H6.60461C6.03958 0 5.58154 0.451362 5.58154 1.00815V5.5L15.0699 11L20.0932 12.65L24.0001 11V5.5L15.0699 0Z"
            fill="#21A366" />
        <path d="M5.58154 5.5H15.0699V11H5.58154V5.5Z" fill="#107C41" />
        <path opacity="0.1"
            d="M12.3724 4.3999H5.58154V18.1499H12.3724C12.9367 18.1481 13.3937 17.6978 13.3955 17.1418V5.40805C13.3937 4.85202 12.9367 4.40171 12.3724 4.3999Z"
            fill="black" />
        <path opacity="0.2"
            d="M11.8143 4.94995H5.58154V18.7H11.8143C12.3786 18.6981 12.8355 18.2478 12.8374 17.6918V5.9581C12.8355 5.40207 12.3786 4.95176 11.8143 4.94995Z"
            fill="black" />
        <path opacity="0.2"
            d="M11.8143 4.94995H5.58154V17.6H11.8143C12.3786 17.5981 12.8355 17.1478 12.8374 16.5918V5.9581C12.8355 5.40207 12.3786 4.95176 11.8143 4.94995Z"
            fill="black" />
        <path opacity="0.2"
            d="M11.2562 4.94995H5.58154V17.6H11.2562C11.8204 17.5981 12.2774 17.1478 12.2792 16.5918V5.9581C12.2774 5.40207 11.8204 4.95176 11.2562 4.94995Z"
            fill="black" />
        <path
            d="M1.02307 4.94995H11.256C11.821 4.94995 12.2791 5.40131 12.2791 5.9581V16.0418C12.2791 16.5986 11.821 17.0499 11.256 17.0499H1.02307C0.458041 17.05 0 16.5986 0 16.0418V5.9581C0 5.40131 0.458041 4.94995 1.02307 4.94995Z"
            fill="url(#paint0_linear_218_4933)" />
        <path
            d="M3.16846 14.277L5.32064 10.9908L3.34874 7.72266H4.93497L6.01106 9.81266C6.11041 10.0112 6.1785 10.1586 6.21534 10.256H6.22929C6.29999 10.0976 6.37441 9.94374 6.45255 9.7945L7.60287 7.72376H9.05906L7.03691 10.9726L9.11042 14.277H7.56102L6.31804 11.983C6.25949 11.8854 6.20981 11.7828 6.16958 11.6766H6.15117C6.11475 11.7807 6.06644 11.8803 6.00716 11.9736L4.72735 14.277H3.16846Z"
            fill="white" />
        <path d="M22.977 0H15.0698V5.5H24.0001V1.00815C24.0001 0.451362 23.542 0 22.977 0Z" fill="#33C481" />
        <path d="M15.0698 11H24.0001V16.5H15.0698V11Z" fill="#107C41" />
    </g>
    <defs>
        <linearGradient id="paint0_linear_218_4933" x1="2.13312" y1="4.1622" x2="9.97068" y2="17.9374"
            gradientUnits="userSpaceOnUse">
            <stop stop-color="#18884F" />
            <stop offset="0.5" stop-color="#117E43" />
            <stop offset="1" stop-color="#0B6631" />
        </linearGradient>
        <clipPath id="clip0_218_4933">
            <rect width="24" height="22" fill="white" />
        </clipPath>
    </defs>
</svg>