<svg width="16" height="16" viewBox="0 0 16 16" fill="none" xmlns="http://www.w3.org/2000/svg">
    <path fill-rule="evenodd" clip-rule="evenodd"
        d="M12.1438 4.73209C12.3475 4.56242 12.6102 4.4806 12.8743 4.5046C13.1383 4.5286 13.382 4.65647 13.5518 4.86009L15.6348 7.36009C15.797 7.56459 15.8729 7.82444 15.8461 8.08413C15.8194 8.34381 15.6921 8.58274 15.4916 8.74987C15.291 8.917 15.0331 8.99907 14.7728 8.97856C14.5126 8.95804 14.2707 8.83657 14.0988 8.64009L12.0158 6.14009C11.8461 5.93637 11.7643 5.67361 11.7883 5.40959C11.8123 5.14556 11.9402 4.90187 12.1438 4.73209Z"
        fill="#474747" />
    <path fill-rule="evenodd" clip-rule="evenodd"
        d="M12.1444 11.2679C11.9406 11.0982 11.8125 10.8546 11.7884 10.5906C11.7642 10.3266 11.8458 10.0637 12.0154 9.85988L14.0994 7.35988C14.1822 7.25543 14.2852 7.1686 14.4021 7.10452C14.519 7.04043 14.6476 7.00038 14.7803 6.98671C14.9129 6.97305 15.0469 6.98604 15.1745 7.02495C15.302 7.06385 15.4205 7.12786 15.5229 7.21322C15.6254 7.29859 15.7097 7.40358 15.7709 7.52201C15.8322 7.64045 15.8692 7.76994 15.8796 7.90287C15.8901 8.0358 15.8739 8.16948 15.832 8.29605C15.79 8.42262 15.7232 8.53953 15.6354 8.63988L13.5524 11.1399C13.3826 11.3435 13.1389 11.4714 12.8749 11.4954C12.6108 11.5194 12.3481 11.4375 12.1444 11.2679Z"
        fill="#474747" />
    <path fill-rule="evenodd" clip-rule="evenodd"
        d="M14.6172 8C14.6172 8.26522 14.5118 8.51957 14.3243 8.70711C14.1368 8.89464 13.8824 9 13.6172 9H7.11719C6.85197 9 6.59762 8.89464 6.41008 8.70711C6.22254 8.51957 6.11719 8.26522 6.11719 8C6.11719 7.73478 6.22254 7.48043 6.41008 7.29289C6.59762 7.10536 6.85197 7 7.11719 7H13.6172C13.8824 7 14.1368 7.10536 14.3243 7.29289C14.5118 7.48043 14.6172 7.73478 14.6172 8ZM0.117188 1C0.117188 0.734784 0.222544 0.48043 0.410081 0.292893C0.597617 0.105357 0.851971 0 1.11719 0H10.1172C10.3824 0 10.6368 0.105357 10.8243 0.292893C11.0118 0.48043 11.1172 0.734784 11.1172 1C11.1172 1.26522 11.0118 1.51957 10.8243 1.70711C10.6368 1.89464 10.3824 2 10.1172 2H1.11719C0.851971 2 0.597617 1.89464 0.410081 1.70711C0.222544 1.51957 0.117188 1.26522 0.117188 1ZM0.117188 15C0.117188 14.7348 0.222544 14.4804 0.410081 14.2929C0.597617 14.1054 0.851971 14 1.11719 14H10.1172C10.3824 14 10.6368 14.1054 10.8243 14.2929C11.0118 14.4804 11.1172 14.7348 11.1172 15C11.1172 15.2652 11.0118 15.5196 10.8243 15.7071C10.6368 15.8946 10.3824 16 10.1172 16H1.11719C0.851971 16 0.597617 15.8946 0.410081 15.7071C0.222544 15.5196 0.117188 15.2652 0.117188 15Z"
        fill="#474747" />
    <path fill-rule="evenodd" clip-rule="evenodd"
        d="M10.1172 0C10.3824 0 10.6368 0.105357 10.8243 0.292893C11.0118 0.48043 11.1172 0.734784 11.1172 1V5C11.1172 5.26522 11.0118 5.51957 10.8243 5.70711C10.6368 5.89464 10.3824 6 10.1172 6C9.85197 6 9.59762 5.89464 9.41008 5.70711C9.22254 5.51957 9.11719 5.26522 9.11719 5V1C9.11719 0.734784 9.22254 0.48043 9.41008 0.292893C9.59762 0.105357 9.85197 0 10.1172 0ZM10.1172 10C10.3824 10 10.6368 10.1054 10.8243 10.2929C11.0118 10.4804 11.1172 10.7348 11.1172 11V15C11.1172 15.2652 11.0118 15.5196 10.8243 15.7071C10.6368 15.8946 10.3824 16 10.1172 16C9.85197 16 9.59762 15.8946 9.41008 15.7071C9.22254 15.5196 9.11719 15.2652 9.11719 15V11C9.11719 10.7348 9.22254 10.4804 9.41008 10.2929C9.59762 10.1054 9.85197 10 10.1172 10ZM1.11719 0C1.3824 0 1.63676 0.105357 1.82429 0.292893C2.01183 0.48043 2.11719 0.734784 2.11719 1V15C2.11719 15.2652 2.01183 15.5196 1.82429 15.7071C1.63676 15.8946 1.3824 16 1.11719 16C0.851971 16 0.597617 15.8946 0.410081 15.7071C0.222544 15.5196 0.117188 15.2652 0.117188 15V1C0.117188 0.734784 0.222544 0.48043 0.410081 0.292893C0.597617 0.105357 0.851971 0 1.11719 0Z"
        fill="#474747" />
</svg>
