<svg width="21" height="20" viewBox="0 0 21 20" fill="none" xmlns="http://www.w3.org/2000/svg">
    <path
        d="M7.313 9.612C7.77 9.232 8.231 9.232 8.699 9.623L8.807 9.721L13.793 14.707L13.887 14.79C14.0794 14.9391 14.3196 15.013 14.5626 14.9976C14.8056 14.9823 15.0346 14.8789 15.2067 14.7067C15.3789 14.5346 15.4823 14.3056 15.4976 14.0626C15.513 13.8196 15.4391 13.5794 15.29 13.387L15.207 13.293L13.915 12L14.207 11.707L14.313 11.612C14.77 11.232 15.231 11.232 15.699 11.623L15.807 11.721L20.481 16.396C20.3863 17.3483 19.9534 18.235 19.2608 18.8954C18.5681 19.5557 17.6617 19.9459 16.706 19.995L16.5 20H4.5C3.50791 19.9999 2.55124 19.6312 1.81576 18.9654C1.08028 18.2996 0.618465 17.3842 0.52 16.397L7.207 9.707L7.313 9.612ZM16.5 0C17.5262 -8.02754e-07 18.5132 0.394435 19.2568 1.10172C20.0004 1.80901 20.4437 2.77504 20.495 3.8L20.5 4V13.585L17.207 10.293L17.057 10.156C15.801 9.061 14.207 9.059 12.961 10.139L12.807 10.279L12.5 10.585L10.207 8.293L10.057 8.156C8.801 7.061 7.207 7.059 5.961 8.139L5.807 8.279L0.5 13.585V4C0.499999 2.97376 0.894435 1.98677 1.60172 1.24319C2.30901 0.499605 3.27504 0.0563122 4.3 0.00500011L4.5 0H16.5ZM13.51 5L13.383 5.007C13.14 5.03591 12.9159 5.15296 12.7534 5.33596C12.5909 5.51897 12.5011 5.75524 12.5011 6C12.5011 6.24476 12.5909 6.48103 12.7534 6.66403C12.9159 6.84704 13.14 6.96409 13.383 6.993L13.5 7L13.627 6.993C13.87 6.96409 14.0941 6.84704 14.2566 6.66403C14.4191 6.48103 14.5089 6.24476 14.5089 6C14.5089 5.75524 14.4191 5.51897 14.2566 5.33596C14.0941 5.15296 13.87 5.03591 13.627 5.007L13.51 5Z"
        fill="#474747" />
</svg>
