<svg width="7" height="9" viewBox="0 0 7 9" fill="none" xmlns="http://www.w3.org/2000/svg">
    <path
        d="M6.125 9C6.36563 9 6.57154 8.91614 6.74275 8.74843C6.91396 8.58071 6.99971 8.37886 7 8.14286V3.85714C7 3.62143 6.91425 3.41971 6.74275 3.252C6.57125 3.08429 6.36533 3.00029 6.125 3H5.6875V2.14286C5.6875 1.55 5.47415 1.04471 5.04744 0.627C4.62073 0.209286 4.10492 0.000286007 3.5 2.9254e-07C2.89508 -0.000285422 2.37913 0.208715 1.95213 0.627C1.52513 1.04529 1.31192 1.55057 1.3125 2.14286V3H0.875001C0.634376 3 0.428313 3.084 0.256814 3.252C0.0853133 3.42 -0.000290871 3.62171 9.53674e-07 3.85714V8.14286C9.53674e-07 8.37857 0.0856051 8.58043 0.256814 8.74843C0.428022 8.91643 0.634084 9.00029 0.875001 9H6.125ZM3.5 6.85714C3.25938 6.85714 3.05331 6.77329 2.88181 6.60557C2.71031 6.43786 2.62471 6.236 2.625 6C2.62529 5.764 2.7109 5.56229 2.88181 5.39486C3.05273 5.22743 3.25879 5.14343 3.5 5.14286C3.74121 5.14229 3.94713 5.22629 4.11775 5.39486C4.28838 5.56343 4.37413 5.76514 4.375 6C4.37588 6.23486 4.29013 6.43671 4.11775 6.60557C3.94538 6.77443 3.73946 6.85829 3.5 6.85714ZM4.8125 3H2.1875V2.14286C2.1875 1.78571 2.3151 1.48214 2.57031 1.23214C2.82552 0.982143 3.13542 0.857143 3.5 0.857143C3.86458 0.857143 4.17448 0.982143 4.42969 1.23214C4.6849 1.48214 4.8125 1.78571 4.8125 2.14286V3Z"
        fill="#474747" />
</svg>