<svg width="44" height="44" viewBox="0 0 44 44" fill="none" xmlns="http://www.w3.org/2000/svg">
<rect width="44" height="44" rx="10" fill="#F9ACBE"/>
<path opacity="0.4" d="M12 16.447C12 13.996 14.0302 12 16.5245 12H21.4856C23.9748 12 26 13.99 26 16.437V27.553C26 30.005 23.9698 32 21.4744 32H16.5154C14.0252 32 12 30.01 12 27.563V26.623V16.447Z" fill="#FF003D"/>
<path d="M31.7789 21.4548L28.9331 18.5458C28.639 18.2458 28.1657 18.2458 27.8725 18.5478C27.5803 18.8498 27.5813 19.3368 27.8745 19.6368L29.4337 21.2298H27.9387H19.5484C19.1345 21.2298 18.7985 21.5748 18.7985 21.9998C18.7985 22.4258 19.1345 22.7698 19.5484 22.7698H29.4337L27.8745 24.3628C27.5813 24.6628 27.5803 25.1498 27.8725 25.4518C28.0196 25.6028 28.2114 25.6788 28.4043 25.6788C28.5952 25.6788 28.787 25.6028 28.9331 25.4538L31.7789 22.5458C31.9201 22.4008 32 22.2048 32 21.9998C32 21.7958 31.9201 21.5998 31.7789 21.4548Z" fill="#FF003D"/>
</svg>
