<svg width="144" height="30" viewBox="0 0 144 30" fill="none" xmlns="http://www.w3.org/2000/svg">
    <path
        d="M36.425 29.1428H40.2044C40.4349 29.1372 40.8834 29.096 41.3588 28.8395C41.7181 28.6456 41.9502 28.4049 42.0817 28.2453C43.0365 26.5431 43.9908 24.8413 44.9456 23.1394C42.9204 23.1096 41.4475 23.1579 40.925 23.1394C40.7523 23.1334 40.3505 23.1421 39.937 23.3756C39.6561 23.5344 39.483 23.7332 39.3887 23.86C38.4011 25.6211 37.4131 27.3818 36.425 29.1428Z"
        fill="white" />
    <path
        d="M118.207 0.127195H114.462C114.167 0.109087 113.575 0.111729 112.927 0.401091C112.449 0.614622 112.128 0.900211 111.944 1.09224C110.211 3.27396 108.477 5.45568 106.743 7.6374H104.882V0.127195C103.636 0.135872 102.39 0.14455 101.145 0.153227C101.084 0.157755 100.849 0.181145 100.657 0.368645C100.432 0.587835 100.441 0.863239 100.443 0.910021C100.418 3.15248 100.392 5.39494 100.366 7.6374H98.3263C96.6953 5.59678 95.0639 3.55653 93.4326 1.51628C93.2032 1.25522 92.7975 0.861353 92.1795 0.548601C91.6582 0.284893 91.178 0.175863 90.8496 0.127195H86.8231C89.2262 3.14644 91.6289 6.16532 94.0316 9.18456L86.0415 19.2111H89.9939C90.3152 19.216 90.9241 19.1843 91.5952 18.8788C92.1874 18.6086 92.5682 18.2431 92.7706 18.0175C94.4689 15.8667 96.168 13.7163 97.8663 11.5659H100.366C100.381 13.8921 100.395 16.2183 100.41 18.5445C100.419 18.6049 100.464 18.8546 100.7 19.0406C100.974 19.2572 101.294 19.2183 101.346 19.2111H104.882V11.5659H107.097C108.838 13.7698 110.579 15.9738 112.319 18.1778C112.517 18.383 112.857 18.6841 113.363 18.9112C114.058 19.224 114.693 19.2296 115.012 19.2111H118.994C116.335 15.8761 113.678 12.5411 111.019 9.20607L118.207 0.127195Z"
        fill="white" />
    <path
        d="M137.894 0.643995C137.135 1.02088 136.647 1.50416 136.383 1.80786C133.144 5.97625 129.904 10.145 126.665 14.3134V0.127142C125.564 0.128273 124.463 0.12903 123.362 0.130161C123.224 0.151665 122.957 0.211273 122.691 0.403301C122.364 0.639845 122.232 0.938261 122.184 1.06351C122.173 7.11257 122.161 13.162 122.149 19.2111H126.377C126.807 19.2024 127.745 19.1251 128.675 18.532C129.194 18.2015 129.538 17.8201 129.75 17.5383C132.995 13.3261 136.24 9.11396 139.485 4.9018C139.479 9.27921 139.472 13.6562 139.466 18.0333C139.472 18.1163 139.51 18.5927 139.939 18.9342C140.294 19.2167 140.692 19.2269 140.802 19.2262C141.868 19.2213 142.934 19.2164 144 19.2111V0.127142H139.808C139.392 0.155813 138.675 0.256166 137.894 0.643995Z"
        fill="white" />
    <path
        d="M76.1333 15.2831H64.0439C64.7577 13.6933 65.2319 11.5485 65.455 8.90275C65.4688 8.74015 65.5374 7.57554 65.745 5.24517C65.7632 5.04032 65.8107 4.58609 66.1589 4.30163C66.5171 4.00925 67.0111 4.04547 67.1798 4.05528C68.15 4.113 71.4845 4.09414 76.1333 4.05528V15.2831ZM80.6491 15.2831V0.127201H63.2852C63.1395 0.13588 62.5385 0.187565 62.0433 0.662918C61.5299 1.15676 61.4942 1.75698 61.4899 1.89054V1.88865L61.0493 7.73059C60.9321 9.20117 60.7792 10.451 60.5957 11.4463C60.4167 12.414 60.1723 13.1972 59.8688 13.7751C59.5907 14.3041 59.2504 14.6847 58.857 14.9077C58.4514 15.1378 57.9443 15.2646 57.356 15.2831L56.448 15.2827V17.5055V18.4306C56.448 18.8618 56.8148 19.2111 57.2672 19.2119C57.9459 19.2134 58.5639 19.2149 58.7425 19.2111H76.1333H80.6491H82.9072V15.2831H80.6491Z"
        fill="white" />
    <path
        d="M52.1789 0.944834L44.2012 15.1673L36.223 0.944834C35.9092 0.385351 35.2972 0.0360031 34.6312 0.0360031H30.5354C33.7862 5.83117 37.0367 11.6263 40.2875 17.4215C40.4678 17.709 40.8338 18.2043 41.4772 18.608C42.2949 19.1214 43.1014 19.1984 43.4635 19.2116H46.4695H47.1101L57.8665 0.0360031H53.7707C53.1047 0.0360031 52.4927 0.385351 52.1789 0.944834Z"
        fill="white" />
    <path
        d="M16.4234 16.0431V3.10257C20.8516 3.24329 24.6812 5.32391 24.6812 9.59077C24.6812 13.8218 21.1495 15.9371 16.6797 16.0431M12.3941 16.0431C7.96588 15.9371 4.08396 13.8218 4.08396 9.59077C4.08396 5.32391 7.92429 3.24329 12.3941 3.10257V16.0431ZM16.6797 -5.14984e-05H12.1271C5.09059 0.140669 0 3.24329 0 9.59077C0 15.902 5.09059 19.0401 12.1271 19.1812H16.6797C23.7154 19.0401 28.7652 15.902 28.7652 9.59077C28.7652 3.24329 23.7154 0.140669 16.6797 -5.14984e-05Z"
        fill="white" />
</svg>
