<svg width="32" height="21" viewBox="0 0 32 21" fill="none" xmlns="http://www.w3.org/2000/svg">
    <path
        d="M18.1681 17.0655V3.3003C22.8731 3.44999 26.9421 5.66319 26.9421 10.202C26.9421 14.7026 23.1896 16.9527 18.4405 17.0655M13.887 17.0655C9.18201 16.9527 5.05747 14.7026 5.05747 10.202C5.05747 5.66319 9.13782 3.44999 13.887 3.3003V17.0655ZM18.4405 -3.8147e-05H13.6033C6.12702 0.149649 0.718262 3.44999 0.718262 10.202C0.718262 16.9154 6.12702 20.2535 13.6033 20.4036H18.4405C25.9159 20.2535 31.2813 16.9154 31.2813 10.202C31.2813 3.44999 25.9159 0.149649 18.4405 -3.8147e-05Z"
        fill="#1F1F1F" />
</svg>