<svg width="17" height="17" viewBox="0 0 17 17" fill="none" xmlns="http://www.w3.org/2000/svg">
<path transform="translate(-0.5 0)" d="M7.59998 12.3538L14.323 5.63075L13.2692 4.57693L7.59998 10.2462L4.74998 7.39615L3.69615 8.44998L7.59998 12.3538ZM2.3077 17C1.80257 17 1.375 16.825 1.025 16.475C0.675 16.125 0.5 15.6974 0.5 15.1923V1.8077C0.5 1.30257 0.675 0.875 1.025 0.525C1.375 0.175 1.80257 0 2.3077 0H15.6923C16.1974 0 16.625 0.175 16.975 0.525C17.325 0.875 17.5 1.30257 17.5 1.8077V15.1923C17.5 15.6974 17.325 16.125 16.975 16.475C16.625 16.825 16.1974 17 15.6923 17H2.3077Z" fill="#993CA6"/>
</svg>
