<svg width="21" height="20" viewBox="0 0 21 20" fill="none" xmlns="http://www.w3.org/2000/svg">
<path opacity="0.4" d="M16.1742 7.51746C15.7979 7.51746 15.2996 7.50913 14.6791 7.50913C13.1659 7.50913 11.9217 6.25663 11.9217 4.72913V2.04913C11.9217 1.83829 11.7526 1.66663 11.5438 1.66663H7.13705C5.08011 1.66663 3.41675 3.35496 3.41675 5.42413V14.4033C3.41675 16.5741 5.15932 18.3333 7.30866 18.3333H13.8714C15.9217 18.3333 17.5834 16.6558 17.5834 14.585V7.89246C17.5834 7.68079 17.4151 7.50996 17.2055 7.51079C16.8532 7.51329 16.4308 7.51746 16.1742 7.51746Z" fill="#993CA6"/>
<path opacity="0.4" d="M13.9036 2.13935C13.6545 1.88019 13.2195 2.05852 13.2195 2.41769V4.61519C13.2195 5.53685 13.9778 6.29519 14.8995 6.29519C15.4811 6.30185 16.2878 6.30352 16.9728 6.30185C17.3236 6.30102 17.502 5.88185 17.2586 5.62852C16.3795 4.71435 14.8053 3.07602 13.9036 2.13935Z" fill="#993CA6"/>
<path d="M13.0878 10.5907C12.8444 10.3499 12.4528 10.3482 12.2094 10.5924L10.8853 11.9232V7.90074C10.8853 7.55824 10.6069 7.27991 10.2644 7.27991C9.92195 7.27991 9.64361 7.55824 9.64361 7.90074V11.9232L8.31861 10.5924C8.07611 10.3482 7.68361 10.3499 7.44111 10.5907C7.19778 10.8324 7.19778 11.2249 7.43861 11.4682L9.82445 13.8649H9.82528C9.88195 13.9216 9.94945 13.9674 10.0253 13.9991C10.1003 14.0299 10.1819 14.0466 10.2644 14.0466C10.3478 14.0466 10.4294 14.0299 10.5044 13.9982C10.5786 13.9674 10.6461 13.9216 10.7028 13.8657L10.7044 13.8649L13.0894 11.4682C13.3311 11.2249 13.3311 10.8324 13.0878 10.5907Z" fill="#993CA6"/>
</svg>
