<svg width="110" height="23" viewBox="0 0 110 23" fill="none" xmlns="http://www.w3.org/2000/svg">
<path d="M27.8246 22.7271H30.7116C30.8877 22.7226 31.2303 22.6906 31.5934 22.4905C31.8679 22.3393 32.0452 22.1516 32.1457 22.0271C32.875 20.6996 33.604 19.3724 34.3333 18.0453C32.7864 18.022 31.6612 18.0597 31.2621 18.0453C31.1301 18.0405 30.8233 18.0473 30.5073 18.2294C30.2928 18.3533 30.1605 18.5083 30.0885 18.6072C29.3341 19.9806 28.5794 21.3537 27.8246 22.7271Z" fill="#292929"/>
<path d="M90.2972 0.098917H87.4359C87.2105 0.084795 86.7587 0.0868549 86.2636 0.312515C85.8983 0.479039 85.6535 0.701757 85.5131 0.851511C84.1885 2.55294 82.864 4.25437 81.5394 5.9558H80.118V0.098917C79.1663 0.105683 78.2149 0.112451 77.2631 0.119218C77.2171 0.122748 77.0371 0.140989 76.8906 0.287212C76.719 0.45815 76.7257 0.672925 76.7275 0.709408C76.7078 2.45821 76.6882 4.207 76.6682 5.9558H75.1103C73.8644 4.36441 72.6182 2.77331 71.3721 1.18221C71.1968 0.978611 70.887 0.671454 70.4149 0.427552C70.0166 0.221898 69.6499 0.13687 69.399 0.098917H66.3232C68.1589 2.4535 69.9942 4.80778 71.8296 7.16236L65.7261 14.9816H68.7453C68.9908 14.9855 69.4559 14.9608 69.9685 14.7224C70.4209 14.5118 70.7117 14.2267 70.8664 14.0508C72.1637 12.3735 73.4616 10.6964 74.759 9.01943H76.6682C76.6797 10.8335 76.6909 12.6477 76.7024 14.4618C76.709 14.5088 76.7429 14.7036 76.9233 14.8487C77.133 15.0175 77.3775 14.9872 77.4169 14.9816H80.118V9.01943H81.8103C83.14 10.7382 84.4697 12.457 85.7994 14.1758C85.9504 14.3358 86.2103 14.5706 86.5965 14.7477C87.1276 14.9916 87.6127 14.9961 87.8563 14.9816H90.8979C88.8673 12.3808 86.8371 9.77997 84.8065 7.17914L90.2972 0.098917Z" fill="#292929"/>
<path d="M105.336 0.502201C104.756 0.79612 104.383 1.17301 104.182 1.40985C101.707 4.6606 99.2322 7.91164 96.7577 11.1624V0.0991297C95.9167 0.100013 95.0757 0.100602 94.2348 0.101484C94.1298 0.118255 93.9255 0.16474 93.7224 0.314494C93.4728 0.498965 93.3714 0.731687 93.3351 0.829366C93.3263 5.54677 93.3172 10.2645 93.3081 14.9819H96.5377C96.8663 14.9751 97.5832 14.9148 98.2932 14.4523C98.6896 14.1945 98.9523 13.8971 99.1145 13.6773C101.593 10.3924 104.072 7.10756 106.551 3.82268C106.546 7.23643 106.541 10.6499 106.537 14.0633C106.541 14.1281 106.57 14.4996 106.898 14.7659C107.169 14.9863 107.473 14.9942 107.557 14.9936C108.372 14.9898 109.186 14.986 110 14.9819V0.0991297H106.798C106.48 0.12149 105.932 0.199751 105.336 0.502201Z" fill="#292929"/>
<path d="M58.1575 11.9182H48.9225C49.4678 10.6784 49.83 9.00581 50.0004 6.94249C50.011 6.81569 50.0633 5.90746 50.2219 4.09011C50.2358 3.93035 50.2721 3.57612 50.5381 3.35428C50.8117 3.12627 51.1891 3.15451 51.318 3.16216C52.0591 3.20718 54.6062 3.19246 58.1575 3.16216V11.9182ZM61.607 11.9182V0.0988226H48.3429C48.2316 0.10559 47.7725 0.145897 47.3942 0.516604C47.002 0.901729 46.9748 1.36982 46.9715 1.47397V1.4725L46.635 6.02838C46.5454 7.17522 46.4286 8.14994 46.2885 8.92607C46.1517 9.68073 45.965 10.2915 45.7332 10.7422C45.5207 11.1547 45.2608 11.4516 44.9603 11.6255C44.6504 11.8049 44.263 11.9038 43.8137 11.9182L43.1201 11.9179V13.6514V14.3728C43.1201 14.7091 43.4003 14.9816 43.7459 14.9821C44.2643 14.9833 44.7363 14.9845 44.8728 14.9816H58.1575H61.607H63.3319V11.9182H61.607Z" fill="#292929"/>
<path d="M39.8589 0.736471L33.7648 11.828L27.6704 0.736471C27.4307 0.300154 26.9631 0.0277138 26.4544 0.0277138H23.3257C25.809 4.54711 28.2919 9.0665 30.7752 13.5859C30.9129 13.8101 31.1925 14.1964 31.684 14.5112C32.3086 14.9116 32.9247 14.9716 33.2013 14.9819H35.4976H35.9869L44.2036 0.0277138H41.0748C40.5661 0.0277138 40.0986 0.300154 39.8589 0.736471Z" fill="#292929"/>
<path d="M12.5457 12.5112V2.41946C15.9283 2.5292 18.8537 4.15178 18.8537 7.47933C18.8537 10.7789 16.1559 12.4286 12.7414 12.5112M9.46772 12.5112C6.08505 12.4286 3.11969 10.7789 3.11969 7.47933C3.11969 4.15178 6.05328 2.5292 9.46772 2.41946V12.5112ZM12.7414 -0.000139236H9.26375C3.88865 0.109602 0 2.5292 0 7.47933C0 12.4012 3.88865 14.8485 9.26375 14.9585H12.7414C18.1159 14.8485 21.9734 12.4012 21.9734 7.47933C21.9734 2.5292 18.1159 0.109602 12.7414 -0.000139236Z" fill="#292929"/>
</svg>
