<svg viewBox="0 0 26 26" fill="none" xmlns="http://www.w3.org/2000/svg">
    <path
        d="M20.5832 17.3332H22.7499C23.4 17.3332 23.8333 16.8998 23.8333 16.2498V12.9997C23.8333 12.0247 23.0749 11.158 22.2083 10.9413C20.2582 10.3996 17.3331 9.7496 17.3331 9.7496C17.3331 9.7496 15.9247 8.23289 14.9497 7.25787C14.408 6.82452 13.758 6.49951 12.9997 6.49951H5.41611C4.76609 6.49951 4.22441 6.93286 3.8994 7.47454L2.38269 10.6163C2.23923 11.0347 2.16602 11.474 2.16602 11.9163V16.2498C2.16602 16.8998 2.59936 17.3332 3.24938 17.3332H5.41611"
        stroke="#474747" stroke-width="2" stroke-linecap="round" stroke-linejoin="round" />
    <path
        d="M7.58274 19.5C8.77939 19.5 9.74947 18.5299 9.74947 17.3332C9.74947 16.1366 8.77939 15.1665 7.58274 15.1665C6.38609 15.1665 5.41602 16.1366 5.41602 17.3332C5.41602 18.5299 6.38609 19.5 7.58274 19.5Z"
        stroke="#474747" stroke-width="2" stroke-linecap="round" stroke-linejoin="round" />
    <path d="M9.75 17.333H16.2502" stroke="#474747" stroke-width="2" stroke-linecap="round" stroke-linejoin="round" />
    <path
        d="M18.4167 19.5C19.6134 19.5 20.5835 18.5299 20.5835 17.3332C20.5835 16.1366 19.6134 15.1665 18.4167 15.1665C17.2201 15.1665 16.25 16.1366 16.25 17.3332C16.25 18.5299 17.2201 19.5 18.4167 19.5Z"
        stroke="#474747" stroke-width="2" stroke-linecap="round" stroke-linejoin="round" />
</svg>