<svg width="16" height="16" viewBox="0 0 20 20" fill="none" xmlns="http://www.w3.org/2000/svg">
    <path
        d="M13.2727 12.8333C13.2727 11.9388 10.7085 11.2143 7.54545 11.2143M13.2727 12.8333C13.2727 13.7279 10.7085 14.4524 7.54545 14.4524C4.38236 14.4524 1.81818 13.7279 1.81818 12.8333M13.2727 12.8333V16.83C13.2727 17.752 10.7085 18.5 7.54545 18.5C4.38236 18.5 1.81818 17.7528 1.81818 16.83V12.8333M13.2727 12.8333C16.4015 12.8333 19 12.0343 19 11.2143V3.11905M7.54545 11.2143C4.38236 11.2143 1.81818 11.9388 1.81818 12.8333M7.54545 11.2143C3.93073 11.2143 1 10.4153 1 9.59524V5.54762M7.54545 3.92857C3.93073 3.92857 1 4.6531 1 5.54762M1 5.54762C1 6.44214 3.93073 7.16667 7.54545 7.16667C7.54545 7.98671 10.207 8.78571 13.3357 8.78571C16.4645 8.78571 19 7.98671 19 7.16667M19 3.11905C19 2.22452 16.4636 1.5 13.3357 1.5C10.2078 1.5 7.67145 2.22452 7.67145 3.11905M19 3.11905C19 4.01357 16.4636 4.7381 13.3357 4.7381C10.2078 4.7381 7.67145 4.01357 7.67145 3.11905M7.67145 3.11905V11.3487"
        stroke="#002B4D" stroke-width="2" />
</svg>
