<svg viewBox="0 0 26 26" fill="none" xmlns="http://www.w3.org/2000/svg">
    <path
        d="M22.2687 4.2953C22.0121 4.13148 21.7186 4.03237 21.4141 4.00669C21.1096 3.98101 20.8034 4.02953 20.5224 4.148L11.3134 7.72724C11.0956 7.81553 10.8623 7.86058 10.6269 7.8598H4.73134C4.23654 7.8598 3.762 8.05378 3.41211 8.39907C3.06223 8.74436 2.86567 9.21267 2.86567 9.70097V9.84827H1V14.2671H2.86567V14.4586C2.87736 14.9392 3.07907 15.3962 3.4277 15.732C3.77632 16.0678 4.2442 16.2557 4.73134 16.2555L6.97015 20.9395C7.12175 21.2549 7.36042 21.5217 7.65875 21.7093C7.95708 21.8969 8.30298 21.9977 8.65672 22H9.59702C10.0892 21.9961 10.5599 21.8004 10.9066 21.4556C11.2533 21.1107 11.4478 20.6446 11.4478 20.1588V16.4323L20.5224 20.0115C20.7459 20.0982 20.9838 20.1431 21.2239 20.1441C21.5964 20.1373 21.9592 20.0248 22.2687 19.8201C22.5141 19.6565 22.7166 19.4376 22.8594 19.1814C23.0021 18.9253 23.081 18.6393 23.0896 18.3471V5.81242C23.0882 5.5127 23.0127 5.21784 22.8696 4.95345C22.7266 4.68906 22.5203 4.46314 22.2687 4.2953ZM9.58209 9.70097V14.4586H4.73134V9.70097H9.58209ZM9.58209 20.1588H8.64179L6.80597 16.2555H9.58209V20.1588ZM12 14.6795C11.8228 14.5902 11.638 14.5163 11.4478 14.4586V9.59787C11.6361 9.55923 11.8208 9.50503 12 9.43585L21.2239 5.81242V18.3029L12 14.6795ZM23.1343 10.2165V13.8988C23.6291 13.8988 24.1037 13.7049 24.4536 13.3596C24.8034 13.0143 25 12.546 25 12.0577C25 11.5694 24.8034 11.1011 24.4536 10.7558C24.1037 10.4105 23.6291 10.2165 23.1343 10.2165Z"
        fill="#474747" />
</svg>
