<svg viewBox="0 0 24 24" fill="none" xmlns="http://www.w3.org/2000/svg">
    <path fill-rule="evenodd" clip-rule="evenodd"
        d="M13.0095 6.51099C13.6034 5.91713 14.4088 5.5835 15.2487 5.5835C16.0886 5.5835 16.894 5.91713 17.4879 6.51099C18.0817 7.10486 18.4154 7.91031 18.4154 8.75016C18.4154 9.59002 18.0817 10.3955 17.4879 10.9893C16.894 11.5832 16.0886 11.9168 15.2487 11.9168C14.4088 11.9168 13.6034 11.5832 13.0095 10.9893C12.4157 10.3955 12.082 9.59002 12.082 8.75016C12.082 7.91031 12.4157 7.10486 13.0095 6.51099ZM15.2487 7.5835C14.9393 7.5835 14.6425 7.70641 14.4237 7.9252C14.2049 8.144 14.082 8.44074 14.082 8.75016C14.082 9.05958 14.2049 9.35633 14.4237 9.57512C14.6425 9.79391 14.9393 9.91683 15.2487 9.91683C15.5581 9.91683 15.8549 9.79391 16.0737 9.57512C16.2924 9.35633 16.4154 9.05958 16.4154 8.75016C16.4154 8.44074 16.2924 8.144 16.0737 7.9252C15.8549 7.70641 15.5581 7.5835 15.2487 7.5835Z"
        fill="#474747" />
    <path fill-rule="evenodd" clip-rule="evenodd"
        d="M11.7231 0.202546C12.2556 0.348977 12.5686 0.899375 12.4221 1.43189L11.9177 3.26624C12.9138 2.66109 14.0648 2.33342 15.2496 2.33342C16.9514 2.33342 18.5835 3.00946 19.7869 4.21282C20.9902 5.41618 21.6663 7.04828 21.6663 8.75009C21.6663 9.9349 21.3386 11.0859 20.7334 12.082L22.5678 11.5775C23.1003 11.4311 23.6507 11.7441 23.7971 12.2766C23.9436 12.8091 23.6306 13.3595 23.0981 13.506L1.43142 19.4643C0.898908 19.6107 0.348504 19.2978 0.202062 18.7652C0.0556204 18.2327 0.368595 17.6823 0.901111 17.5359L6.33019 16.0429L10.4937 0.901618C10.6402 0.369099 11.1906 0.0561139 11.7231 0.202546ZM8.57411 15.4258L12.2406 14.4175C11.6829 14.1214 11.167 13.742 10.7123 13.2874C10.2577 12.8328 9.87838 12.317 9.58231 11.7593L8.57411 15.4258ZM15.2496 4.33342C14.0782 4.33342 12.9548 4.79875 12.1265 5.62703C11.2983 6.45532 10.8329 7.57872 10.8329 8.75009C10.8329 9.92146 11.2983 11.0449 12.1265 11.8731C12.9548 12.7014 14.0782 13.1668 15.2496 13.1668C16.421 13.1668 17.5444 12.7014 18.3727 11.8731C19.2009 11.0449 19.6663 9.92146 19.6663 8.75009C19.6663 7.57872 19.2009 6.45532 18.3727 5.62703C17.5444 4.79875 16.421 4.33342 15.2496 4.33342ZM6.65851 18.6192C7.19102 18.7657 7.504 19.3161 7.35756 19.8486L6.46381 23.0986C6.31737 23.6311 5.76696 23.9441 5.23445 23.7976C4.70193 23.6512 4.38895 23.1008 4.5354 22.5683L5.42915 19.3183C5.57559 18.7858 6.12599 18.4728 6.65851 18.6192Z"
        fill="#474747" />
</svg>
