<svg viewBox="0 0 26 26" fill="none" xmlns="http://www.w3.org/2000/svg">
    <path
        d="M21.0385 3.5H4.96154C4.15435 3.5 3.5 4.15435 3.5 4.96154V21.0385C3.5 21.8456 4.15435 22.5 4.96154 22.5H21.0385C21.8456 22.5 22.5 21.8456 22.5 21.0385V4.96154C22.5 4.15435 21.8456 3.5 21.0385 3.5Z"
        stroke="#474747" stroke-width="2" />
    <path
        d="M13 15.731C14.3807 15.731 15.5 14.6117 15.5 13.231C15.5 11.8502 14.3807 10.731 13 10.731C11.6193 10.731 10.5 11.8502 10.5 13.231C10.5 14.6117 11.6193 15.731 13 15.731Z"
        stroke="#474747" stroke-width="2" />
    <path d="M8.5 8.73096L11.2 11.431M8.5 17.731L11.2 15.031M14.8 15.031L17.5 17.731M14.8 11.431L17.5 8.73096"
        stroke="#474747" stroke-width="2" stroke-linecap="round" stroke-linejoin="round" />
</svg>