<svg width="18" height="18" viewBox="0 0 18 18" fill="none" xmlns="http://www.w3.org/2000/svg">
<path d="M16.5423 17.577L10.2615 11.2962C9.7615 11.7091 9.1865 12.0321 8.5365 12.2655C7.8865 12.4988 7.21407 12.6155 6.5192 12.6155C4.81004 12.6155 3.36352 12.0237 2.17965 10.8401C0.995788 9.65655 0.403854 8.21041 0.403854 6.50169C0.403854 4.79296 0.995638 3.34628 2.1792 2.16167C3.36277 0.977065 4.80892 0.384766 6.51765 0.384766C8.22637 0.384766 9.67304 0.9767 10.8577 2.16057C12.0423 3.34443 12.6346 4.79095 12.6346 6.50012C12.6346 7.21422 12.5147 7.89627 12.275 8.54627C12.0352 9.19627 11.7153 9.76165 11.3153 10.2424L17.5961 16.5232L16.5423 17.577ZM6.5192 11.1155C7.80767 11.1155 8.89902 10.6684 9.79325 9.77417C10.6875 8.87993 11.1346 7.78858 11.1346 6.50012C11.1346 5.21165 10.6875 4.1203 9.79325 3.22607C8.89902 2.33183 7.80767 1.88472 6.5192 1.88472C5.23074 1.88472 4.13939 2.33183 3.24515 3.22607C2.35094 4.1203 1.90383 5.21165 1.90383 6.50012C1.90383 7.78858 2.35094 8.87993 3.24515 9.77417C4.13939 10.6684 5.23074 11.1155 6.5192 11.1155Z" fill="#292929"/>
</svg>
