<svg viewBox="0 0 26 26" fill="none" xmlns="http://www.w3.org/2000/svg">
    <g clip-path="url(#clip0_1516_198)">
        <path fill-rule="evenodd" clip-rule="evenodd"
            d="M8.80322 20.0406C9.75283 16.2283 13.4903 14.4375 17.0626 14.4375C20.6263 14.4375 24.3741 16.1709 25.3235 20.0445C25.5467 20.9541 24.9817 22.125 23.7571 22.125H10.3687C9.14739 22.125 8.57493 20.9567 8.80314 20.0409M10.8617 20.125H23.2664C22.4663 17.744 19.9621 16.4375 17.0626 16.4375C14.1763 16.4375 11.6662 17.781 10.8617 20.125Z"
            fill="#474747" />
        <path fill-rule="evenodd" clip-rule="evenodd"
            d="M0.673314 18.5852C1.46296 15.4172 4.56225 13.9575 7.4657 13.9575C8.63345 13.9575 9.79485 14.1334 10.8783 14.6298C11.3804 14.8599 11.601 15.4534 11.3709 15.9555C11.1409 16.4576 10.5473 16.6781 10.0453 16.4481C9.29553 16.1046 8.43786 15.9575 7.4657 15.9575C5.32971 15.9575 3.50748 16.8982 2.80739 18.4999H7.82117C8.37345 18.4999 8.82117 18.9476 8.82117 19.4999C8.82117 20.0522 8.37345 20.4999 7.82117 20.4999H2.11945C0.985919 20.4999 0.467475 19.416 0.672972 18.5866L0.673314 18.5852Z"
            fill="#474747" />
        <path fill-rule="evenodd" clip-rule="evenodd"
            d="M7.5 11.5C7.84057 11.5 9 11.1198 9 9C9 8.3494 8.76889 8.04276 8.54602 7.86041C8.26075 7.62701 7.84986 7.5 7.5 7.5C7.15014 7.5 6.73925 7.62701 6.45398 7.86041C6.23111 8.04276 6 8.3494 6 9C6 11.1198 7.15943 11.5 7.5 11.5ZM7.5 13.5C9.15685 13.5 11 12 11 9C11 6.5 9 5.5 7.5 5.5C6 5.5 4 6.5 4 9C4 12 5.84315 13.5 7.5 13.5Z"
            fill="#474747" />
        <path
            d="M20 8C20 9.68723 19.53 10.6596 18.9948 11.2074C18.4547 11.7602 17.7321 12 17 12C16.2679 12 15.5453 11.7602 15.0052 11.2074C14.47 10.6596 14 9.68723 14 8C14 6.71233 14.4544 6.01824 14.97 5.61832C15.5288 5.18495 16.2892 5 17 5C17.7108 5 18.4712 5.18495 19.03 5.61832C19.5456 6.01824 20 6.71233 20 8Z"
            stroke="#474747" stroke-width="2" stroke-miterlimit="2.45859" />
    </g>
    <defs>
        <clipPath id="clip0_1516_198">
            <rect width="26" height="26" fill="white" />
        </clipPath>
    </defs>
</svg>