<svg width="16" height="16" viewBox="0 0 21 21" fill="none" xmlns="http://www.w3.org/2000/svg">
    <path fill-rule="evenodd" clip-rule="evenodd"
        d="M2.92902 6.36358V2.92927H8.18157V6.36358H2.92902ZM9.99976 6.36358V2.92927H17.0704V6.01629C17.7191 6.24432 18.3293 6.55404 18.8886 6.93312V2.02017C18.8886 1.5181 18.4816 1.11108 17.9795 1.11108H2.01993C1.51785 1.11108 1.11084 1.5181 1.11084 2.02017V17.9798C1.11084 18.4818 1.51785 18.8889 2.01993 18.8889H8.55965C8.06364 18.3464 7.6418 17.735 7.31018 17.0707H2.92902V8.18176H8.18157V8.60153C8.9231 7.66107 9.87234 6.89202 10.9601 6.36358H9.99976Z"
        fill="#002B4D" />
    <circle cx="14.5453" cy="13.7501" r="5.56818" stroke="#002B4D" stroke-width="1.59091" />
    <path d="M14.5454 11.3638V13.7501L16.1363 15.341" stroke="#002B4D" stroke-width="1.59091" stroke-linecap="round" />
</svg>