<svg viewBox="0 0 17 17" fill="none" xmlns="http://www.w3.org/2000/svg">
<path transform="translate(0.5 0)" d="M3.30775 17C2.80908 17 2.38308 16.8234 2.02975 16.4702C1.67658 16.1169 1.5 15.6909 1.5 15.1922V2.49998H0.5V0.999979H5V0.115479H11V0.999979H15.5V2.49998H14.5V15.1922C14.5 15.6974 14.325 16.125 13.975 16.475C13.625 16.825 13.1974 17 12.6923 17H3.30775ZM13 2.49998H3V15.1922C3 15.2821 3.02883 15.3558 3.0865 15.4135C3.14417 15.4711 3.21792 15.5 3.30775 15.5H12.6923C12.7692 15.5 12.8398 15.4679 12.9038 15.4037C12.9679 15.3397 13 15.2692 13 15.1922V2.49998ZM5.404 13.5H6.90375V4.49998H5.404V13.5ZM9.09625 13.5H10.596V4.49998H9.09625V13.5Z" fill="#993CA6"/>
</svg>
